<?xml version="1.0" encoding="UTF-8"?><svg id="Layer_1" xmlns="http://www.w3.org/2000/svg" viewBox="0 0 3061.74 3510"><defs><style>.cls-1{fill:#ea5e2b;}.cls-1,.cls-2,.cls-3,.cls-4,.cls-5,.cls-6,.cls-7,.cls-8,.cls-9,.cls-10{stroke-width:0px;}.cls-2{fill:#ee7a27;}.cls-11{opacity:.5;}.cls-3{fill:#75b736;}.cls-4{fill:#fff;}.cls-5{fill:#5eb030;}.cls-6{fill:#c3dba0;}.cls-7{fill:#9dc97e;}.cls-12{opacity:.3;}.cls-8{fill:#76b733;}.cls-9{fill:#3a9136;}.cls-10{fill:#000072;}</style></defs><path class="cls-2" d="m2077.48,1007.8c768.22,606.85,406.19,1354.17-564.75,2010.61-844.1,570.69-1212.17,475.39-1327.23,384.5-115.07-90.9-292.99-426.9,66.75-1380.21C666.06,926.17,1309.25,400.95,2077.48,1007.8"/><path class="cls-2" d="m2077.48,1007.8c768.22,606.85,406.19,1354.17-564.75,2010.61-844.1,570.69-1212.17,475.39-1327.23,384.5-115.07-90.9-292.99-426.9,66.75-1380.21C666.06,926.17,1309.25,400.95,2077.48,1007.8"/><path class="cls-2" d="m1512.75,3018.43c-844.15,570.67-1212.2,475.37-1327.27,384.49-115.07-90.9-293-426.88,66.79-1380.19,132.05-350,287.46-641.76,462.94-857.1,100.21-123.12,206.97-221.21,319.63-290.89,307.87-190.64,659.7-169.42,1042.62,133.07,382.93,302.48,485.03,639.85,370.85,983.49-41.7,125.73-112.42,252.31-208.99,378.3-168.82,220.51-416.71,439.31-726.58,648.84"/><path class="cls-2" d="m60.63,3175.29c29.06,124.1,81.44,193.3,124.83,227.61,115.12,90.93,483.15,186.24,1327.26-384.49,309.91-209.5,557.81-428.33,726.63-648.85,96.52-125.98,167.29-252.53,208.95-378.24,114.19-343.69,12.12-681.01-370.82-983.51-382.94-302.51-734.79-323.68-1042.66-133.06-112.66,69.68-219.4,167.77-319.59,290.88-72.48,88.96-141.46,190.86-206.79,304.49-93,161.67-178.62,347.09-256.18,552.61C28.29,2616.27,12.71,2970.53,60.63,3175.29"/><path class="cls-2" d="m2448.29,1991.33c-41.65,125.67-112.38,252.23-208.96,378.23-168.78,220.54-416.69,439.35-726.63,648.88-844.14,570.73-1212.1,475.37-1327.26,384.5-43.35-34.31-95.76-103.58-124.85-227.62-30.24-129.09-35.13-317.43,21.35-587.67,33.17-158.59,87.45-345.38,170.33-564.93,28.7-75.96,58.43-149.14,89.24-219.48,52.57-119.88,108.31-231.2,166.91-333.16,65.36-113.6,134.31-215.47,206.85-304.46,100.15-123.07,206.91-221.19,319.55-290.87,307.89-190.61,659.71-169.43,1042.66,133.08,382.95,302.52,484.99,639.83,370.81,983.5"/><g class="cls-12"><path class="cls-4" d="m1606.69,1506.78c30.39,32.47-3.47,267.17-165.56,525.76-157.43,251.12-425.15,471.28-495.43,438.96-41.84-19.24-52.62-179.29,201.35-568.73,224.91-344.88,416.79-441.75,459.63-395.99"/></g><path class="cls-1" d="m485.09,3406.98c175.17-13.25,489.57-100.43,992.56-440.48,310.58-210.01,550.11-423.66,711.92-635.02,93.44-121.9,160.48-242.99,199.26-359.93,111.41-335.29-6.41-642.99-350.2-914.57-86.38-68.22-320.38-89.57-386.17-133.24-110.85,76.81,462.16,515.74,191.11,1008.52C1249.5,3012.29,192.6,3328.66,224.34,3353.73c25.35,20.02,101.5,65.3,260.7,53.25h.05Z"/><path class="cls-1" d="m1907.98,1547.77c433.13,253.14,321.2-214.63,316.68-232.77,25.59,118.88-169.54,44.76-351.54-80.35-152.51-104.76-266.17-266.14-219.92-310.43-.26-.16-.52-.28-.73-.44-80.63,55.87,200.72,303.45,255.51,623.99"/><path class="cls-10" d="m433.01,3510c-152.18,0-235.48-47.43-271.91-76.2-87.36-69.01-341.62-375.73,54.33-1424.98C486.72,1289.93,841.27,851.35,1240.76,740.5c275.87-76.57,565.6,2.99,861.12,236.42,295.51,233.44,439.97,496.87,429.37,782.99-15.35,414.29-359.93,860.75-996.47,1291.11-541.65,366.2-888.99,458.99-1101.76,458.99ZM1445.6,791.23c-62.13,0-123.41,8.36-183.8,25.11-374.3,103.87-710.66,525.83-972.72,1220.26-386.8,1025.01-133.82,1292.26-79.18,1335.43,54.64,43.17,373.21,227.39,1280.79-386.22,614.89-415.72,947.51-840.64,961.9-1228.82,9.62-259.63-124.79-501.3-399.5-718.31-208.45-164.66-412.04-247.46-607.48-247.46Z"/><path class="cls-10" d="m708.76,2716.43c53.18,40.52,108.34,78.95,164.28,115.64,56.05,36.59,113.17,71.44,171.72,103.15,58.47,31.73,118.42,60.63,179.84,83.15,30.7,11.12,61.76,20.68,92.84,27.27,31.03,6.62,62.27,9.92,91.4,7.66h.07c17.96-1.4,33.65,12.04,35.04,29.99,1.39,17.96-12.04,33.65-29.99,35.04-.66.06-1.41.09-2.05.1-38.16.56-74.16-5.95-108.36-15.35-34.23-9.46-66.9-21.8-98.64-35.52-63.37-27.72-123-61.18-180.67-97.12-57.68-35.94-113.26-74.67-167.53-114.97-54.19-40.46-107.05-82.27-158.32-126.47-3.41-2.94-3.79-8.08-.86-11.5,2.83-3.28,7.68-3.75,11.09-1.17l.14.11Z"/><path class="cls-10" d="m684.25,1984.09c-31.98-19.58-61.85-41.33-90.96-64.7-28.99-23.42-56.68-48.65-82.89-75.76-26.03-27.29-50-56.93-71.73-88.73-21.28-32.18-39.13-67.25-52.86-104.85-6.19-16.95,2.52-35.71,19.48-41.91,16.94-6.19,35.7,2.53,41.9,19.48.4,1.11.74,2.22,1.02,3.34l.28,1.14c8.02,32.44,19.88,64.75,35.78,95.82,16.39,30.8,35.44,60.76,57.08,89.2,21.84,28.26,45.61,55.39,71.05,81.08,25.44,25.57,52.49,50.27,80.87,72.31l.25.19c3.55,2.76,4.2,7.89,1.43,11.45-2.58,3.31-7.2,4.09-10.69,1.95"/><path class="cls-10" d="m475.27,3013.42c-43.53-24.69-84.63-52.35-124.75-81.97-39.98-29.7-78.4-61.73-115.03-96.04-36.53-34.46-70.43-72.01-101.86-112.08-30.97-40.51-57.8-84.71-80.15-131.99-7.71-16.3-.74-35.77,15.56-43.47,16.3-7.7,35.76-.73,43.46,15.57.37.77.7,1.56,1,2.36l.46,1.21c16.35,43.32,37.25,85.69,62.97,125.82,26.22,39.76,55.39,78.15,87.74,114.15,32.46,35.88,67.14,70.07,103.77,102.29,36.62,32.06,75.08,62.81,115.19,90.18l.25.17c3.72,2.53,4.67,7.6,2.14,11.32-2.4,3.52-7.11,4.56-10.75,2.49"/><path class="cls-10" d="m1609.72,2099.79c49.88,34.54,102.6,65.83,156.25,94.25,53.73,28.42,109.09,53.48,165.69,73.8,28.34,9.98,56.99,18.74,85.86,25.83,28.91,6.77,57.99,11.81,86.96,14.38,57.8,5.04,115.55-1.72,163.5-25.61l.13-.07c16.13-8.03,35.71-1.47,43.74,14.65,8.04,16.13,1.48,35.71-14.65,43.74-.62.31-1.33.64-1.96.9-32.02,13.39-65.74,20.61-98.96,23.17-33.24,2.44-66.21.95-98.07-4.19-31.89-4.97-62.92-12.55-93.19-21.81-30.16-9.57-59.55-20.77-88.31-33.09-57.35-25.01-112.2-54.42-164.88-86.92-52.69-32.58-103.48-67.48-152.02-106.08-3.52-2.8-4.11-7.93-1.3-11.45,2.68-3.37,7.5-4.05,10.99-1.65l.23.15Z"/><path class="cls-10" d="m1231.43,1661.44c-27.93-19.26-53.93-40.1-79.48-61.93-25.48-21.81-49.97-44.83-73.53-68.86-46.98-48.16-89.99-100.75-126.47-158.36-18.05-28.92-34.41-59.07-48.65-90.44-13.94-31.51-25.37-64.34-34.11-98.11-8.63-33.85-13.36-68.81-15.26-104.05-1.63-35.34,1.37-70.8,6.81-105.95,2.75-17.8,19.42-30.01,37.23-27.25,17.81,2.75,30.01,19.42,27.25,37.23-.09.6-.2,1.19-.33,1.78l-.28,1.31c-6.5,30.16-11.14,60.91-11.6,92.08-.19,31.09,2.01,62.46,7.91,93.47,6.04,30.96,14.6,61.66,25.71,91.66,11.43,29.89,25.02,59.15,40.44,87.59,31.2,56.72,69.49,110.07,112.33,159.72,42.96,49.4,90.27,96.1,141.47,136.82l.24.2c3.53,2.8,4.11,7.92,1.31,11.44-2.68,3.37-7.51,4.03-11,1.64"/><path class="cls-1" d="m1692.23,912.66c151.51,9.73,532.23,335.91,534.68,420.3,2.47,84.39-32.06,363.01-480.11,18.93-314.2-241.29-132.57-444.24-54.57-439.23"/><path class="cls-8" d="m1665.11,1154.9s318.94-365.81,133.03-785.6c-137.16-309.72,21.13-331.5,89.88-329.86,71.56,1.7,234.25,97.79,249.72,286.8,29.36,358.66-269.84,739.71-383.56,894.22"/><path class="cls-3" d="m1754.2,1220.42l-89.07-65.56s246.82-283.07,179.56-637.02c-9.14-48.37-24.17-98.08-46.52-148.57-137.23-309.7,21.06-331.47,89.82-329.85,71.61,1.7,234.29,97.83,249.73,286.83,15.26,186.49-58.3,379.05-148.44,542.59-83.18,151.08-180.51,277.42-235.09,351.58"/><path class="cls-6" d="m1868.25,186.02c-29,28.39,285.39,216.37-68.57,869.2,0,0-50.79,121.13,17.04,10.57,355.21-578.98,91.06-918.48,51.53-879.77"/><path class="cls-6" d="m1799.64,1055.25c52.8-97.33,90.71-184.27,117.07-261.98,3.06,17.35,8.62,31.18,15.8,41.95-27.77,71.81-65.6,148.82-115.8,230.59-67.84,110.48-17.07-10.56-17.07-10.56"/><g class="cls-11"><path class="cls-4" d="m1900.51,1015.28c18.19-29.4,36.39-60.13,53.9-91.98,90.15-163.55,163.7-356.1,148.45-542.59-15.44-189.01-178.11-285.14-249.73-286.84-28.26-.64-71.58,2.58-103.34,28.19,21.41-75.94,96.39-83.62,138.2-82.64,71.61,1.7,234.29,97.83,249.72,286.83,15.26,186.49-58.29,379.05-148.43,542.59-28.71,52.09-59.07,101.28-88.77,146.43"/></g><path class="cls-5" d="m1754.2,1220.42l-89.07-65.56s246.82-283.07,179.56-637.02c34.16,75.28,66.61,167.08,69.3,248.1,2.32,71.82,36.18,97.54,75.29,102.9-83.18,151.08-180.51,277.42-235.09,351.58"/><path class="cls-7" d="m1799.64,1055.25c52.8-97.33,90.71-184.27,117.07-261.98,3.06,17.35,8.62,31.18,15.8,41.95-27.77,71.81-65.6,148.82-115.8,230.59-67.84,110.48-17.07-10.56-17.07-10.56"/><path class="cls-10" d="m1785.88,1243.79l-63.39-46.66c6.04-8.2,12.59-17.04,19.59-26.47,124.34-167.57,383.05-516.26,356.45-841.21-14.08-172.08-165.32-249.57-211.43-250.67-30.57-.77-70.97,4.38-89.96,32.81-15.73,23.56-31.85,86.3,36.99,241.77,193.83,437.68-125.65,811.69-139.34,827.4l-59.33-51.73,29.67,25.86-29.7-25.82c3.02-3.48,299.98-352.66,126.74-743.84-65.04-146.87-75.01-250.68-30.48-317.36C1762.44,21.81,1816.94-1.7,1888.96.1c91.47,2.17,270.99,114.99,288.01,322.94,29.02,354.48-241.62,719.24-371.68,894.53-6.94,9.35-13.43,18.1-19.41,26.22Z"/><path class="cls-8" d="m1805.45,1258.2s662.94-459.71,997.03-146.18c106.24,99.7,93.79,168.09,58.24,202.03-63.67,60.8-176.38-25.49-264.55-57.41-296.67-107.41-499.44,25.59-715.37,106.96"/><path class="cls-3" d="m2860.69,1314.06c-53.5,51.07-141.71-1.74-220.74-38.87-15.02-6.98-29.71-13.46-43.72-18.56-296.71-107.43-499.53,25.62-715.39,106.98l-75.36-105.43s171.68-119,384.33-194.68c205.23-72.91,448.63-105.43,612.66,48.56,106.23,99.67,93.8,168.08,58.22,202.01"/><path class="cls-6" d="m1930.28,1239.26c571.25-283.38,879.88-49.3,855.79-16.57-24.09,32.72-272.48-231.79-850.64,35.97"/><path class="cls-6" d="m2274.62,1149.71c-97.37,15.96-210.1,49.2-339.22,108.95l-5.09-19.36c110.38-54.81,210.98-90.24,301.29-111.52,8.39,6.05,18.4,11.8,30.33,16.96,4,1.7,8.21,3.42,12.7,4.97"/><g class="cls-11"><path class="cls-4" d="m2860.69,1314.06c-16.19,15.49-35.56,21.39-56.84,21.12,32.99-34.96,41.32-102.13-61.51-198.6-164.04-154-407.44-121.48-612.67-48.56-11.21,3.94-22.31,8.08-33.21,12.33,29.86-12.95,61.13-25.39,93.35-36.86,205.23-72.91,448.63-105.43,612.66,48.56,106.23,99.67,93.8,168.08,58.22,202.01"/></g><path class="cls-5" d="m2639.94,1275.19c-15.02-6.98-29.71-13.46-43.72-18.56-296.71-107.44-499.53,25.61-715.39,106.98l-75.37-105.44s171.69-118.99,384.34-194.68c3.96,27.07,20.95,59.11,72.09,81.28,92.24,40.12,327.76,49.65,378.05,130.42"/><path class="cls-7" d="m2274.62,1149.71c-97.37,15.96-210.1,49.2-339.22,108.95l-5.09-19.36c110.38-54.81,210.98-90.24,301.29-111.52,8.39,6.05,18.4,11.8,30.33,16.96,4,1.7,8.21,3.42,12.7,4.97"/><path class="cls-10" d="m1894.67,1400.42l-27.76-73.65c35.9-13.53,72.45-28.95,107.8-43.86,183.87-77.54,373.98-157.72,634.85-63.29,24.52,8.88,50.26,21.37,75.15,33.45,70.99,34.47,123.24,56.95,148.82,32.51,8.89-8.49,13.37-19.08,13.32-31.47-.08-17.43-9.44-55.34-71.31-113.4-306.97-288.06-941.31,145.43-947.68,149.83l-44.84-64.69c28.14-19.5,693.18-474.01,1046.39-142.54,63.57,59.67,95.93,117.02,96.16,170.46.15,33.88-13.23,65.4-37.67,88.74-67.12,64.11-161.62,18.23-237.56-18.62-24.13-11.71-46.92-22.77-67.57-30.25-231.88-83.95-399.75-13.16-577.46,61.8-36.04,15.2-73.31,30.92-110.64,44.98Z"/><path class="cls-8" d="m1741.72,1158.24s477.59-752.67,993.98-710.18c429.61,35.35,326.43,468.09,18.03,497-285.32,26.75-516.26,56.91-881.49,362.31"/><path class="cls-3" d="m2753.75,945.05c-188.71,17.69-353.62,36.9-549.33,136.18-100.2,50.83-208.46,122.71-332.14,226.11l-130.56-149.16s101.13-159.35,260.59-327.23c187.12-197.04,454.61-405.83,733.39-382.87,429.64,35.33,326.43,468.06,18.04,496.96"/><g class="cls-11"><path class="cls-4" d="m2866.57,913.24c162.3-129.44,154.31-403.52-183.89-431.31-141.74-11.66-280.59,36.55-407.44,112.78,140.66-95.24,298.65-159.95,460.46-146.6,371.67,30.59,344.57,358.49,130.87,465.13"/></g><path class="cls-5" d="m2204.42,1081.24c-100.2,50.83-208.46,122.71-332.14,226.11l-130.55-149.16s101.12-159.35,260.59-327.23c-.02,107.78,30.34,258.87,202.1,250.27"/><path class="cls-9" d="m2070.06,1039.09c-67.46,50.45-137.99,108.27-210.87,174.71-47.33-12.87-19.67-27.2-19.67-27.2,67.67-66.66,136.81-125.5,205.62-177.08,7.11,10.86,15.39,20.81,24.91,29.58"/><path class="cls-10" d="m1897.5,1337.56l-50.5-60.39c386.08-322.83,637.2-346.38,903.06-371.3,146.56-13.74,233.54-126.58,232.96-227.73-.61-106.65-94.27-178-250.55-190.86-486.68-40.13-952.89,684.72-957.53,692.05l-66.46-42.18c20.02-31.55,496.36-772.3,1030.45-728.32,236.99,19.51,322.14,151.67,322.8,268.86.78,136.59-112.85,288.6-304.33,306.55-264.33,24.78-492.61,46.18-859.91,353.32Z"/><path class="cls-6" d="m2854.4,671.44c-13.46-28.83-549.51,56.75-1014.86,515.22,0,0-27.71,14.3,19.65,27.08,583.97-532.01,1008.68-513.47,995.21-542.3"/><path class="cls-7" d="m2070.06,1039.09c-67.46,50.45-137.99,108.27-210.87,174.71-47.33-12.87-19.67-27.2-19.67-27.2,67.67-66.66,136.81-125.5,205.62-177.08,7.11,10.86,15.39,20.81,24.91,29.58"/><path class="cls-2" d="m1692.23,912.66c-123.54-1.79,1.96,199.06,180.91,322.02,182.25,125.21,377.71,199.43,351.45,79.76,0,0,159.83,628.17-520.13,91.06-623.95-492.87-12.22-492.84-12.22-492.84"/><path class="cls-1" d="m1907.98,1547.77c433.13,253.14,321.2-214.63,316.68-232.77,25.59,118.88-169.54,44.76-351.54-80.35-152.51-104.76-266.17-266.14-219.92-310.43-.26-.16-.52-.28-.73-.44-80.63,55.87,200.72,303.45,255.51,623.99"/><path class="cls-10" d="m1692.23,912.66c-9.09,1.83-18.12,4.01-25.18,8.59-7.22,4.32-11.59,10.47-12.93,17.17-2.62,13.66,3.56,29.78,11.14,44.46,15.85,29.75,38.42,57.17,62,83.02,47.65,51.65,101.63,97.97,158.89,138.16,58.67,40.3,119.14,79.29,181.55,112.71,31.2,16.39,63.25,32.09,95.73,40.88,15.96,4.1,32.89,6.46,44.98.54,6.04-2.89,10.74-9.05,13.12-17.16,2.78-8.04,3.04-17.3,3.06-26.59,3.7,8.55,6.46,17.71,6.85,27.86.31,9.93-3.03,21.73-11.6,30.16-8.37,8.51-19.56,12.62-29.83,14.86-10.46,2.22-20.75,2.62-30.78,2.42-40.1-1.65-76.96-12.96-112.56-25.83-70.98-26.77-136.29-63.73-197.87-106.53-62.23-44.05-117.2-97.5-161.23-159.86-21.54-31.46-41.17-64.96-51.86-103.57-2.5-9.67-4.42-19.75-4.73-30.28-.14-10.47.92-21.86,6.65-32.13,5.48-10.46,16.03-17.25,25.89-19.3,10.01-2.18,19.61-1.42,28.71.42"/></svg>