<?xml version="1.0" encoding="utf-8"?>
<!-- Generator: Adobe Illustrator 28.0.0, SVG Export Plug-In . SVG Version: 6.00 Build 0)  -->
<svg version="1.1"
	 id="svg2" xmlns:svg="http://www.w3.org/2000/svg" xmlns:rdf="http://www.w3.org/1999/02/22-rdf-syntax-ns#" xmlns:dc="http://purl.org/dc/elements/1.1/" xmlns:cc="http://creativecommons.org/ns#"
	 xmlns="http://www.w3.org/2000/svg" xmlns:xlink="http://www.w3.org/1999/xlink" x="0px" y="0px" viewBox="0 0 5333.3 5333.3"
	 style="enable-background:new 0 0 5333.3 5333.3;" xml:space="preserve">
<style type="text/css">
	.st0{fill:#FFFFFF;}
	.st1{fill:#DAE1F2;}
	.st2{fill:#000072;}
	.st3{fill:#FF7C1A;}
	.st4{fill:#FFA45F;}
	.st5{fill:#FF5D1D;}
	.st6{fill:#5AE83D;}
	.st7{fill:#6DE242;}
	.st8{fill:#C2FFAB;}
	.st9{fill:#B6F1A1;}
	.st10{fill:#57C134;}
	.st11{fill:#9BEF78;}
	.st12{fill:#DDF7FF;}
	.st13{fill:#ADF49E;}
	.st14{fill:#389113;}
	.st15{fill:#FF6C6C;}
	.st16{fill:#F44A4A;}
	.st17{fill:#8A8ABE;}
</style>
<g>
	<g id="g46" transform="scale(1.83571)">
		<path id="path48" class="st0" d="M2192.5,1419.8c0,0,62.3,72.1,15.8,128.9c-2.3,2.8-4.8,5.6-7.7,8.3
			c-60.4,57.7-138.9,9.9-138.9,9.9L1911,1351.3c0,0-6.6-49.9,12.6-91c9.2-19.7,24.3-37.4,48.8-46.6c75.8-28.5,119.1,49.1,119.1,49.1
			s100.1-46.9,139,22.6C2269.3,1354.8,2192.5,1419.8,2192.5,1419.8"/>
	</g>
	<g id="g50" transform="scale(1.82255)">
		<path id="path52" class="st1" d="M2224.3,1559.9c-2.3,2.9-4.9,5.7-7.7,8.3c-60.9,58.2-139.9,10-139.9,10L1924.7,1361
			c0,0-6.6-50.2,12.7-91.7c3.3-1.3,5.2-2.1,5.2-2.1c-4.9,1.5-10.9,86,80,80.5c90.9-5.4,52.1-104.8,52.1-104.8s42.4,28.7,43.5,80.1
			c0.6,28.9,27.3,51.1,55.9,46.6c2.1-0.3,4.3-0.8,6.6-1.2c52.1-11,65.8-73.9,65.8-73.9s19.9,115.8-81.8,160.6
			c-28.9,12.7-41.2,48.7-24.3,75.4C2152.4,1549.5,2176.6,1564.2,2224.3,1559.9"/>
	</g>
	<g id="g54" transform="scale(1.72656)">
		<path id="path56" class="st2" d="M2239.3,1336.9c5.1,22.2,5.1,44.9,2.6,67.2c-0.6,5.3-5.4,9.1-10.7,8.5c-4.6-0.6-8.1-4.3-8.5-8.7
			c-1.1-9.9-2.8-19.7-5.3-29.2c-1.8-7-4-13.9-6.7-20.6c-0.8-2-1.9-4.5-2.6-5.8c-4.7-8-2.1-18.3,6-23.1
			C2224,1319.1,2237.3,1325.6,2239.3,1336.9"/>
	</g>
	<g id="g58" transform="scale(1.84009)">
		<path id="path60" class="st2" d="M2067.5,1551.4c13.2,7.1,71.5,34.3,117.1-9.3c48.8-46.6-6.8-112.6-9.1-115.4
			c-2.7-3.2-4.1-7.3-3.7-11.4c0.3-4.1,2.3-8,5.4-10.7c2.7-2.3,66.2-57.5,34.3-114.7c-31.1-55.8-114.9-17.6-118.5-16
			c-7.4,3.4-16.2,0.6-20.2-6.5c-1.5-2.6-37.9-65.3-99.8-42.1c-56.1,21-53,99.4-51.6,117.1L2067.5,1551.4z M2124.1,1597.2
			c-31,0-59.1-10.7-75.4-20.7c-1.8-1.1-3.4-2.6-4.7-4.4l-150.3-215.2c-1.4-2.1-2.4-4.4-2.7-6.9c-0.7-4.9-15-121.6,71.2-153.9
			c61.4-23.1,108.2,14,130.3,44.3c42.3-15.7,113.6-24.2,146.2,34.3c31.5,56.4-1.7,113.4-30.5,143.4c24.8,35.4,47.9,98.7-2.1,146.5
			C2180.7,1588.9,2151.3,1597.2,2124.1,1597.2"/>
	</g>
	<g id="g62" transform="scale(1.8127)">
		<path id="path64" class="st0" d="M2088.8,1988.7c0,0-16.1,0.7-43.6,0c-86.5-2.5-285.7-20.2-450.7-124.2
			c-18.9-11.9-37.3-24.8-55.1-39.1c-59.3-47.5-111.2-108.9-147.5-187.9c-37.5-81.3-58.6-181.5-54.1-304.7
			c0,0,307.4-241.3,616.9,12.2C2264.3,1598.3,2088.8,1988.7,2088.8,1988.7"/>
	</g>
	<g id="g66" transform="scale(1.68886)">
		<path id="path68" class="st1" d="M2203.7,2083.4c-1.4,17.4-4.3,34.4-8.5,51.1c-92.8-2.7-306.6-21.6-483.8-133.3
			c74.8-113.3,118.5-190.1,118.5-190.1s-10.3-22-44-43.3c16.6-18.9,31.6-32.6,44-38.8C1897.7,1695.2,2235,1692.6,2203.7,2083.4"/>
	</g>
	<g id="g70" transform="scale(1.74069)">
		<path id="path72" class="st2" d="M1409.4,1396.4c-5.2,190,49.1,342.6,161.3,453.6c201.4,199.2,530.9,205.4,593.4,204.7
			c11-27.9,41.7-114.7,45.8-221.7c6.6-172.7-55.5-313.9-184.7-419.7c-129.1-105.7-272.6-140.2-426.5-102.4
			C1501.2,1334.8,1429.9,1381.8,1409.4,1396.4z M2154.1,2087.8c-35.7,0-111.8-2.5-203.9-20c-116.6-22.2-281.1-74-402.7-194.3
			c-120.6-119.3-178.1-282.8-170.8-486.1c0.2-4.9,2.5-9.4,6.3-12.4c3.4-2.6,84.2-65.3,206.5-95.7c113.4-28.1,284.7-32.1,456.5,108.6
			c171.7,140.6,201.8,321,196.7,447.6c-5.5,136.2-50.6,238-52.5,242.3c-2.6,5.7-8.1,9.4-14.3,9.7
			C2174.9,2087.4,2167.2,2087.8,2154.1,2087.8"/>
	</g>
	<g id="g74" transform="scale(1.92344)">
		<path id="path76" class="st3" d="M2242.6,2048.1c-44.6-464.4-619.6-524.3-1384.2-321.4c-664.7,176.4-756.1,346.2-749.4,415.7
			s129.7,229.8,822.6,346.2C1728.6,2622.6,2287.2,2512.5,2242.6,2048.1"/>
	</g>
	<g id="g78" transform="scale(1.92344)">
		<path id="path80" class="st3" d="M2242.6,2048.1c-44.6-464.4-619.6-524.3-1384.2-321.4c-664.7,176.4-756.1,346.2-749.4,415.7
			s129.7,229.8,822.6,346.2C1728.6,2622.6,2287.2,2512.5,2242.6,2048.1"/>
	</g>
	<g id="g82" transform="scale(1.90728)">
		<path id="path84" class="st3" d="M865.7,1741.4c-670.4,177.9-762.5,349.1-755.8,419.3c6.7,70.1,130.8,231.8,829.6,349.1
			c256.5,43.1,488.5,61.1,684.1,50.5c111.8-6.1,211.6-21.5,297.3-47c234.3-69.6,363-214.3,340.6-447.7
			c-22.4-233.4-177.7-365.5-423.4-413.9c-89.9-17.8-191.8-24.3-303.8-20.4C1338.5,1637.7,1111.8,1676.1,865.7,1741.4"/>
	</g>
	<g id="g86" transform="scale(1.90725)">
		<path id="path88" class="st3" d="M1623.7,2560.3c-195.6,10.7-427.6-7.3-684.1-50.5c-46.5-7.8-90.3-15.8-131.8-23.9
			c-582.9-114.5-691.5-259.7-697.8-325.2c-6.7-70.2,85.4-241.3,755.8-419.3c246.1-65.3,472.8-103.6,668.7-110.3
			c105.5-3.6,202.1,2,287.9,17.5c5.4,0.9,10.7,1.9,15.9,2.9c245.6,48.4,401,180.5,423.3,413.9c22.4,233.5-106.2,378.1-340.6,447.7
			C1835.3,2538.8,1735.4,2554.2,1623.7,2560.3"/>
	</g>
	<g id="g90" transform="scale(1.90723)">
		<path id="path92" class="st3" d="M2261.6,2065.5c22.4,233.5-106.2,378.1-340.6,447.7c-85.7,25.6-185.6,41-297.4,47
			c-195.6,10.7-427.6-7.3-684.1-50.4c-46.4-7.8-90.3-15.8-131.8-23.9c-582.9-114.5-691.5-259.7-697.8-325.2
			c-5-51.8,44.1-158.9,340.9-283.1c104.7-43.8,240.2-89.7,414.9-136.1c246.1-65.3,472.8-103.6,668.7-110.3
			c105.5-3.6,202.1,1.9,288,17.5c5.4,0.9,10.6,1.9,15.9,2.9c55.1,10.9,105.6,25.9,151.1,45.4
			C2146.9,1764.3,2244.3,1884.5,2261.6,2065.5"/>
	</g>
	<g id="g94" transform="scale(1.26441)">
		<path id="path96" class="st4" d="M1881.4,3340c-60.5,0-131-6.8-206.9-13.7c-75.9-6.8-157.1-13.7-239-13.7
			c-14.4,0-28.9,0.2-43.3,0.7c-155.4,5-283.9,18.1-379.7,18.1c-120.4,0-189.1-20.7-194.7-104.3c-6.4-94.2,78.2-108.1,228.9-108.1
			c31.2,0,65.2,0.6,101.9,1.2c36.7,0.6,75.9,1.2,117.6,1.2c35.8,0,73.4-0.4,112.7-1.7c205.2-6.6,410.6-68.6,547.1-68.6
			c96.8,0,159,31.2,162,135.4C2091.4,3309.9,2008.3,3340,1881.4,3340"/>
	</g>
	<g id="g98" transform="scale(1.52722)">
		<path id="path100" class="st4" d="M2014.7,2760.8c-1.2,0-2.4,0-3.6,0c-96.6-0.7-173.2-49.7-171.7-127.9
			c1.1-57.9,43.5-120.9,140-124c4-0.1,8.1-0.2,12.1-0.2c93.5,0,196.4,34.2,197.4,113C2189.8,2696.6,2157,2760.8,2014.7,2760.8"/>
	</g>
	<g id="g102" transform="scale(1.86026)">
		<path id="path104" class="st5" d="M2274.5,2173.1c-1.3,185.1-109.8,311-323.6,374.5c-45.6,13.6-96.5,24.5-151.3,32.3
			c-43.2,6.2-89.8,10.7-138.5,13.3c-191.9,10.5-422.8-6.6-686.4-50.9c-45.1-7.6-90-15.7-133.4-24.2
			c-293.7-57.7-461-121.2-556.2-175.7c115.3,22.7,257.5,42.7,432.9,57.6c55.8,4.7,113.4,8.8,170.9,12.1
			c336.7,19.6,625.5,10.1,858.3-28.3c59.1-9.7,115.1-21.3,166.4-34.7c65.1-16.9,124.6-37.1,176.7-59.8
			C2165.7,2256.6,2227.1,2217.8,2274.5,2173.1"/>
	</g>
	<g id="g106" transform="scale(1.8183)">
		<path id="path108" class="st5" d="M2265.5,2355.9c-21.6,20.1-161.6,142.7-241.6,28.6c41.1-12.8,79.4-26.9,114.5-42.2
			c15.5-6.8,30.5-13.8,44.9-21.1C2206.9,2360.6,2238.6,2379.8,2265.5,2355.9"/>
	</g>
	<g id="g110" transform="scale(1.91315)">
		<path id="path112" class="st2" d="M1590,1642.2c-2.2,0-4.5,0-6.7,0c-202,0.8-442.8,38-715.8,110.4
			c-289.6,76.9-499.7,159.9-624.5,246.8c-110.8,77.2-118.3,132.7-116.3,153c3.2,33.3,57.4,205.9,812.8,332.8
			c286.6,48.1,533.9,63.7,735.1,46.1c209.2-18.2,362.9-71.9,456.8-159.4c82.9-77.3,118.7-182,106.3-311.1
			c-12.6-131.6-70-233.8-170.4-303.6C1957.6,1680.8,1797,1642.2,1590,1642.2 M1504.5,2572.5c-167.3,0-358.5-17.9-570.7-53.6
			c-305.7-51.3-533.6-116.4-677.5-193.5C121.1,2253,95.7,2188,92.6,2155.6c-3.1-32.7,9.7-100,130.8-184.4
			c128.1-89.2,341.8-173.9,635.3-251.8c275.8-73.2,519.6-110.7,724.4-111.6c217.4-0.8,386.9,39.9,503.7,121.1
			c109.1,75.9,171.3,186.4,184.9,328.5c13.5,140.4-25.9,254.6-117,339.5c-99.6,92.8-260.2,149.5-477.2,168.4
			C1623.1,2570.2,1565.4,2572.5,1504.5,2572.5"/>
	</g>
	<g id="g114" transform="scale(1.09477)">
		<path id="path116" class="st2" d="M1242.7,3730.4c-29-199.4-47.6-527.9,105.8-680.5c11.9-11.5,30.8-11.3,42.4,0.6
			c12.2,12.4,11,33.1-2.5,44.1C1239.1,3221.7,1231.7,3545.5,1242.7,3730.4"/>
	</g>
	<g id="g118" transform="scale(1.17276)">
		<path id="path120" class="st2" d="M1855.5,3821.6c9.8,105.7,53.2,211.8,133.8,282.3c6.5,5,20.4,15.7,26.9,20.8
			c30.5,25.7-8.8,69.3-37.6,41.6c-5.8-6-19.9-20.9-25.4-26.7c-5.2-6.2-17.2-22.3-22.4-28.8
			C1873.5,4026.4,1849.2,3922.3,1855.5,3821.6"/>
	</g>
	<path id="path122" class="st2" d="M874.3,4105.4c0.5,137.8,34.7,278.8,109,395c24.2,38,53.5,71.9,85.8,101.7
		c13.5,12.2,14.5,33.2,2.1,46.6c-12.3,13.3-33,14.2-46.4,1.9C894.6,4503.6,853.1,4296.2,874.3,4105.4"/>
	<g id="g124" transform="scale(1.42154)">
		<path id="path126" class="st2" d="M1922.9,2620.6c-14.9-168.1,25.3-378.3,194.9-454.9c11.5-5.5,25.3-0.6,30.8,10.9
			c6,12.4-0.5,27.6-13.6,31.9c-18.2,6.8-36.1,14.9-52.7,25.6C1960.6,2314.6,1924.2,2482.9,1922.9,2620.6"/>
	</g>
	<g id="g128" transform="scale(1.57652)">
		<path id="path130" class="st2" d="M1872.8,2687.6c13.4,128.5,83.9,253.4,196.5,319.1c36.6,21.3,76.3,36.8,117.2,46.9
			c11.2,2.7,18,14,15.2,25.2c-2.8,11.7-15.3,18.6-26.7,14.7C1992.5,3035,1879.2,2877.9,1872.8,2687.6"/>
	</g>
	<g id="g132" transform="scale(1.86936)">
		<path id="path134" class="st5" d="M2237.8,2303.8c38.6-64.5,12.6-311.4-21.1-336.1c-33.7-24.7-131.8,41.5-142.7,190.4
			C2084.1,2354,2217.9,2337,2237.8,2303.8"/>
	</g>
	<g id="g136" transform="scale(2.14901)">
		<path id="path138" class="st6" d="M1854,1954.4c0,0,207.7-23.7,311.1,144.9c76.3,124.3,122.7,73.5,138.9,48.8
			c16.9-25.8,22.6-107-40.7-158.7c-120-98.1-328.3-85.1-410.9-82.6L1854,1954.4"/>
	</g>
	<g id="g140" transform="scale(2.14901)">
		<path id="path142" class="st7" d="M1852.6,1906.8l1.5,47.6c0,0,160.7-18.3,269.8,92c14.9,15.1,28.9,32.6,41.3,52.8
			c76.3,124.4,122.7,73.6,138.9,48.8c16.9-25.8,22.6-107-40.7-158.7c-62.4-51-148.7-72-228.7-80
			C1960.8,1901.9,1892.2,1905.6,1852.6,1906.8"/>
	</g>
	<g id="g144" transform="scale(2.10381)">
		<path id="path146" class="st8" d="M2295.5,2164.7c-17.5,3.4-7.1-157.4-332-192.2c0,0-56.6-11.8,0.4-8.8
			C2262.4,1979.6,2319.4,2160.1,2295.5,2164.7"/>
	</g>
	<g id="g148" transform="scale(1.92071)">
		<path id="path150" class="st8" d="M2150.7,2160.6c53.1,5.7,97.9,14.4,136,25.2c-6-6-10-12-12.3-17.7c-36.1-8.6-77-14.7-123.2-17.1
			C2088.8,2147.6,2150.7,2160.6,2150.7,2160.6"/>
	</g>
	<g id="g152" transform="scale(2.13986)">
		<path id="path154" class="st9" d="M2266.3,2188.9c-4.9,0-10.1-0.8-15.7-2.7c16.9-5,28.7-19.7,35.4-29.9
			c17-25.9,22.7-107.5-40.9-159.4c-51.4-42-118.8-63.7-185.8-74.6c3.4-0.5,6.9-1.1,10.3-1.7c72.6,9.9,147.5,31.6,203.4,77.2
			c39.3,32.1,52.1,75.6,52.1,110.2c0,21.3-4.8,39.2-11.3,49.1l0,0C2305.7,2169.7,2289.8,2188.9,2266.3,2188.9"/>
	</g>
	<g id="g156" transform="scale(1.98532)">
		<path id="path158" class="st10" d="M2005.3,2064l1.6,51.5c0,0,174-19.8,292,99.6c-19.8-33-46.5-69.8-76.9-92.3
			c-27-19.9-27.9-39.7-19.6-56.1C2122.4,2058.7,2048.2,2062.7,2005.3,2064"/>
	</g>
	<g id="g160" transform="scale(1.92071)">
		<path id="path162" class="st11" d="M2150.7,2160.6c53.1,5.7,97.9,14.4,136,25.2c-6-6-10-12-12.3-17.7
			c-36.1-8.6-77-14.7-123.2-17.1C2088.8,2147.6,2150.7,2160.6,2150.7,2160.6"/>
	</g>
	<g id="g164" transform="scale(2.16552)">
		<path id="path166" class="st2" d="M2239.5,2182.9c-0.3,0-0.6,0-0.9,0c-35.4-0.5-70.4-29.7-106.9-89.2
			c-94.9-154.7-287.6-134.6-289.5-134.4l-4.5-39.6c2.3-0.2,55.7-6.1,122.7,9.6c89.5,20.9,160.5,70.6,205.3,143.6
			c37.2,60.7,62,70,73.5,70.2c0.1,0,0.2,0,0.3,0c13.1,0,23.8-12.1,30.4-22.3c10.4-15.9,19.3-85.7-36.3-131.1
			c-107-87.5-291.7-81-380.5-77.9c-5,0.2-9.7,0.3-14.1,0.5l-1.2-39.8c4.3-0.1,9-0.3,13.9-0.5c93.6-3.3,288.4-10.1,407,86.9
			c70.5,57.6,66.4,150.3,44.4,183.8C2281.5,2175.7,2256.7,2182.9,2239.5,2182.9"/>
	</g>
	<g id="g168" transform="scale(2.02804)">
		<path id="path170" class="st6" d="M1962.1,1991.5c0,0,344.5-130,313.2-336.8c-9.9-65.7-38.9-78.8-60.8-74.2
			c-39.4,8.2-36.1,72.9-47,114.3c-36.5,139.3-139,181-225.5,241.1L1962.1,1991.5"/>
	</g>
	<g id="g172" transform="scale(2.01592)">
		<path id="path174" class="st7" d="M2227.8,1590c-33.2,6.9-36.3,54-42.8,93.6c-1.3,7.5-2.6,14.7-4.4,21.4
			c-36.7,140.2-139.8,182.2-226.9,242.6l20.2,56c0,0,89.7-33.9,173.7-94.6c81-58.6,156.8-142.1,141.3-244.3
			C2279,1598.5,2249.9,1585.4,2227.8,1590"/>
	</g>
	<g id="g176" transform="scale(1.98953)">
		<path id="path178" class="st8" d="M2040.3,1987.2c259.4-144,251.2-324,232.3-323.4c-18.9,0.6,16.8,165.6-238.4,316.3"/>
	</g>
	<g id="g180" transform="scale(1.8893)">
		<path id="path182" class="st8" d="M2280.4,1978.6c-33.5,34.8-78.3,71.1-138.3,106.5l6.4,7.4c52.8-29.3,95.1-60,128.8-90.5
			c-0.1-5.1,0.4-10.7,1.6-16.9C2279.3,1983.1,2279.8,1980.9,2280.4,1978.6"/>
	</g>
	<g id="g184" transform="scale(1.95287)">
		<path id="path186" class="st12" d="M2284.1,1648.8C2284.1,1648.8,2284.1,1648.8,2284.1,1648.8
			C2284.1,1648.8,2284.1,1648.8,2284.1,1648.8 M2284.2,1648.8c2.6-2.2,5.5-4,8.7-5.3C2289.7,1644.8,2286.8,1646.6,2284.2,1648.8"/>
	</g>
	<g id="g188" transform="scale(1.95788)">
		<path id="path190" class="st13" d="M2274.4,1648.4c1.2-1.4,2.5-2.6,3.9-3.8c0,0,0,0,0,0c0,0,0,0,0.1-0.1c2.6-2.2,5.5-4,8.7-5.3
			c2.1-0.9,4.4-1.6,6.8-2.1C2285.8,1638.8,2279.4,1642.8,2274.4,1648.4"/>
	</g>
	<g id="g192" transform="scale(2.00574)">
		<path id="path194" class="st9" d="M2191,1887.5c55.7-53.5,96.3-120.4,84.5-198c-8.9-58.7-32.7-75.8-53.5-75.8c-2,0-4,0.2-5.9,0.5
			c1.2-1.8,2.5-3.5,3.9-5.1c4.9-5.5,11.1-9.4,19-11l0,0c2.6-0.5,5.3-0.8,8-0.8c20.8,0,44.6,17.1,53.5,75.9c1.4,9.1,2,18.1,2,26.9
			c0,64.7-35.7,121.1-83.1,167.7C2210.5,1874.4,2201,1881,2191,1887.5"/>
	</g>
	<g id="g196" transform="scale(1.93866)">
		<path id="path198" class="st10" d="M2272,1750.7c-1.3,7.8-2.8,15.3-4.6,22.2c-38.2,145.8-145.4,189.4-235.9,252.2l21,58.2
			c0,0,93.3-35.2,180.7-98.3c-9.6-8.9-17.6-24.3-12.4-50.4C2230.1,1887.5,2290.2,1792.3,2272,1750.7"/>
	</g>
	<g id="g200" transform="scale(1.8893)">
		<path id="path202" class="st11" d="M2280.4,1978.6c-33.5,34.8-78.3,71.1-138.3,106.5l6.4,7.4c52.8-29.3,95.1-60,128.8-90.5
			c-0.1-5.1,0.4-10.7,1.6-16.9C2279.3,1983.1,2279.8,1980.9,2280.4,1978.6"/>
	</g>
	<g id="g204" transform="scale(2.04573)">
		<path id="path206" class="st2" d="M1952.6,1994l-14.9-39.5c3.3-1.2,325.2-125.3,297.1-311c-5.6-36.7-16.5-49.3-22.6-53.5
			c-3.9-2.7-8-3.6-12.6-2.6c-14.7,3.1-19.4,33.9-23.5,61.1c-1.9,12.5-3.9,25.3-6.9,36.9c-32.1,122.7-111.4,173.3-188,222.2
			c-14.6,9.3-29.7,19-43.9,28.8l-24.1-34.6c14.9-10.3,30.3-20.2,45.3-29.7c73-46.6,141.9-90.6,169.9-197.3c2.5-9.4,4.2-20.7,6-32.6
			c5.9-38.8,13.3-87,56.6-96c15.9-3.3,31.9,0,45.3,9.3c20.6,14.3,34.1,41.9,40.2,81.8C2309.7,1856.5,1967.2,1988.5,1952.6,1994"/>
	</g>
	<g id="g208" transform="scale(2.25569)">
		<path id="path210" class="st6" d="M1783,1835.3c0,0,365.5,13.9,471.4-170.4c88.1-153.4-82.1-219.3-163.7-121.8
			c-75.5,90.2-139.5,161.2-327.7,213.4L1783,1835.3"/>
	</g>
	<g id="g212" transform="scale(2.2557)">
		<path id="path214" class="st7" d="M2090.7,1543c-49.9,59.6-94.8,110.9-173.9,153.9c-40.5,22-90,41.8-153.7,59.6l20,78.8
			c0,0,77.4,2.9,171.2-11.8c110.1-17.3,243-59.1,300.1-158.6C2342.6,1511.5,2172.3,1445.6,2090.7,1543"/>
	</g>
	<g id="g216" transform="scale(2.18091)">
		<path id="path218" class="st13" d="M2191,1838.6C2191,1838.6,2191,1838.6,2191,1838.6C2191,1838.6,2191,1838.6,2191,1838.6
			 M2191.2,1838.5c58.3-26,109.8-63.2,140.4-116.3C2301,1775.4,2249.5,1812.5,2191.2,1838.5"/>
	</g>
	<g id="g220" transform="scale(2.23162)">
		<path id="path222" class="st9" d="M2120.3,1805.6c55.9-25.4,105-61.4,134.4-112.6c60.4-105,0.8-169.5-69.5-169.5
			c-11.4,0-23,1.7-34.5,5.2c18.8-10.4,39.1-15.3,58.5-15.3c70.3,0,129.8,64.4,69.5,169.5l0,0l0,0c-0.1,0.1-0.1,0.2-0.2,0.3
			c-29.9,51.9-80.2,88.2-137.2,113.6c0,0-0.1,0.1-0.2,0.1c0,0,0,0,0,0C2134.3,1799.9,2127.4,1802.8,2120.3,1805.6"/>
	</g>
	<g id="g224" transform="scale(1.9268)">
		<path id="path226" class="st10" d="M2244,1986.6c-47.4,25.8-105.4,49-180,69.7l23.4,92.3c0,0,90.6,3.5,200.5-13.9
			C2245.3,2105.4,2193.8,2052.2,2244,1986.6"/>
	</g>
	<g id="g228" transform="scale(1.88415)">
		<path id="path230" class="st14" d="M2274.4,2097.6c-39.2,13.2-82.3,25.6-129.5,36.6c-8,22.7,5.5,15.5,5.5,15.5
			c45.8-8.8,88.9-20.3,128.9-33.8C2277,2110.1,2275.3,2103.9,2274.4,2097.6"/>
	</g>
	<g id="g232" transform="scale(2.23713)">
		<path id="path234" class="st2" d="M1818,1870.1c-11.6,0-18.9-0.2-20.9-0.3l1.5-38.5c3.6,0.1,358.2,11.4,457.9-162.2
			c31.5-54.8,29.5-102-5.3-126.2c-32.5-22.7-90.8-19.4-128.3,25.3c-71.2,85.1-138.5,165.4-340,221.4l-10.3-37.2
			c190-52.8,250.6-125.2,320.8-209c52.2-62.3,132.4-65.3,179.9-32.2c40.9,28.5,66.7,90,16.7,177.1
			C2192.4,1858,1899.7,1870.1,1818,1870.1"/>
	</g>
	<g id="g236" transform="scale(2.14615)">
		<path id="path238" class="st8" d="M2319.3,1653c6.9,11.8-154.7,181.2-431.4,234.3c0,0-11.9,6.3-4.8-13.6
			C2215,1796.5,2312.3,1641.2,2319.3,1653"/>
	</g>
	<g id="g240" transform="scale(1.88415)">
		<path id="path242" class="st11" d="M2274.4,2097.6c-39.2,13.2-82.3,25.6-129.5,36.6c-8,22.7,5.5,15.5,5.5,15.5
			c45.8-8.8,88.9-20.3,128.9-33.8C2277,2110.1,2275.3,2103.9,2274.4,2097.6"/>
	</g>
	<g id="g244" transform="scale(1.84226)">
		<path id="path246" class="st3" d="M2270.7,2337.7c-34.5,51.6-81.8-57.6-81.6-166.7c0.2-111.1,25.2-213.1,67.2-168.1
			c0,0-9.2-14.2-35.1-12.2c-53,4-146.3,44.5-150.9,201.4C2096.2,2590.7,2270.7,2337.7,2270.7,2337.7"/>
	</g>
	<g id="g248" transform="scale(1.84093)">
		<path id="path250" class="st5" d="M2270.4,2342.1c-14.7,20.1-119.1,181.3-185.7-18.6c27.9-12.8,56.6-18.6,83.9-25.9
			c24.1-6.4,28.6-4.4,38.3-11.7C2223,2325.3,2252.1,2366,2270.4,2342.1"/>
	</g>
	<g id="g252" transform="scale(1.84225)">
		<path id="path254" class="st2" d="M2270.7,2337.7c-7.1,16.8-23.1,21.8-37.8,10c-19.1-15.6-29.4-39.4-37.8-61.4
			c-25.4-71.6-23.9-149.8-7.7-223.4c4.5-18.4,10.3-36.7,20.4-53.7c12.4-20.8,33-30,48.5-6.2c-37.4-30.9-44,40-48,63.8
			c-7.7,70.7-10,143.7,6.8,213.5C2221.2,2303.2,2238.9,2373.1,2270.7,2337.7"/>
	</g>
	<g id="g256" transform="scale(1.27904)">
		<path id="path258" class="st0" d="M902.3,2465.6c0,0-202.2,325.4-202.8,489.6c-0.7,189.5,270.4,329,509.3,0
			c239-329,398.3-629.5,398.3-629.5s-46.9-107.8-256.8-108.3C1140.5,2216.9,902.3,2465.6,902.3,2465.6"/>
	</g>
	<g id="g260" transform="scale(1.24926)">
		<path id="path262" class="st1" d="M1604.3,2333.3c-56,100.2-194.7,339-380.5,594.8c-210.7,290.1-445.7,224.4-506.4,76.6
			c-0.7,7.2-1.1,14.3-1.2,21c-0.7,194,276.8,336.8,521.5,0c244.7-336.8,407.8-644.5,407.8-644.5S1635.5,2358.3,1604.3,2333.3"/>
	</g>
	<path id="path264" class="st2" d="M1193.5,4002.1c-5.1-56,13.6-111.7,41.3-159.4c3.8-6.5,8.1-12.7,12-19c2.2-3.4,6.8-4.5,10.2-2.3
		c2.9,1.8,4.1,5.4,3.1,8.5c-2.3,7-4.8,13.9-6.8,20.9c-12.5,43.5-17.2,90.9-4.5,134.6c0.4,1.2,1,3,1.2,3
		c30.2-3.2,57.3,18.6,60.5,48.8c5.4,70.8-95.3,84.2-108.9,14.8L1193.5,4002.1"/>
	<path id="path266" class="st2" d="M976.6,3975.6c-5.1-56,13.6-111.7,41.3-159.4c3.8-6.5,8.1-12.7,12-19c2.2-3.4,6.8-4.5,10.2-2.3
		c2.9,1.8,4.1,5.4,3.1,8.5c-2.3,7-4.8,13.9-6.8,20.8c-12.5,43.5-17.2,90.9-4.5,134.6c0.4,1.2,1,3,1.2,3
		c30.2-3.3,57.3,18.6,60.5,48.8c5.4,70.7-95.3,84.2-108.9,14.8L976.6,3975.6"/>
	<g id="g268" transform="scale(1.23101)">
		<path id="path270" class="st2" d="M956.6,2573.7C893,2682.4,832.9,2795.6,789,2913.8c-19.7,57.1-39.8,116-35.1,175.6
			c5.3,55.9,39.3,107.4,88,135.2c151.9,82.4,311.3-52.9,396.2-173.8c125.8-171.7,239.8-351.5,350.3-533.3
			c23.2-36,47.1-71.5,73.6-105.3c3.2-4,9-4.7,13-1.6c3.2,2.5,4.3,6.7,3,10.3c-28.4,82.3-71.2,156.8-115.5,230.2
			c-88.2,147.2-181.6,291.2-282,430.4c-88.1,125.5-233.2,250.5-398.2,214.9c-123.6-27.2-201.6-148.7-177.4-272.2
			c15.4-88.2,51-167.9,88.4-247.5c37.6-78,79.3-153,125.2-226.6C934.8,2525.3,971.5,2548,956.6,2573.7"/>
	</g>
	<g id="g272" transform="scale(1.43194)">
		<path id="path274" class="st0" d="M2158.3,2136.1c0,0-51.6,90.6-139.8,224.2c-63.5,96.2-146,214.9-242,338
			c-229.2,293.9-489,169.3-488.3,0c0.1-18,3.1-38.1,8.2-59.5c0-0.1,0-0.1,0-0.1c37-154,186.1-377.7,186.1-377.7
			s129.5-126.1,279.5-188.1c49.1-20.3,100.3-33.8,150-33.6c96.8,0.2,157.3,22.5,194.3,45.8
			C2146.2,2110.1,2158.3,2136.1,2158.3,2136.1"/>
	</g>
	<g id="g276" transform="scale(1.43194)">
		<path id="path278" class="st1" d="M2158.3,2136.1c0,0-51.6,90.6-139.8,224.2c-63.5,96.2-146,214.9-242,338
			c-229.2,293.9-489,169.3-488.3,0c0.1-18,3.1-38.1,8.2-59.5c0.9,4.8,24.1,117.7,139.1,142.1c117.6,24.9,268-84.7,372.2-244.5
			c40.5-62.1,90.5-145.1,141.1-225.6c55.6-88.4,112-173.9,157.5-225.7C2146.2,2110.1,2158.3,2136.1,2158.3,2136.1"/>
	</g>
	<g id="g280" transform="scale(1.11128)">
		<path id="path282" class="st2" d="M1948.7,3677.5c-5.4-51,12.8-102.1,39.3-144.6c3.7-5.8,7.7-11.3,11.5-16.9
			c2.1-3.1,6.4-4,9.6-1.8c2.6,1.8,3.6,5.1,2.6,8c-2.2,6.3-4.6,12.4-6.7,18.7c-12.1,39.2-17.8,84.1-3.9,122.9
			C2009.1,3698.7,1958.8,3711.8,1948.7,3677.5"/>
	</g>
	<g id="g284" transform="scale(1.0239)">
		<path id="path286" class="st2" d="M1887.7,3965.5c-5.9-55.3,13.9-110.8,42.6-157c4-6.3,8.3-12.3,12.4-18.3c2.3-3.4,7-4.3,10.4-2
			c3.1,2.1,4.1,6,2.6,9.3c-18.3,47.9-28.4,104.2-11.3,153.2C1953.2,3988.4,1898.7,4002.7,1887.7,3965.5"/>
	</g>
	<g id="g288" transform="scale(1.43634)">
		<path id="path290" class="st2" d="M1494.7,2265.1c-58.9,93.8-114.8,191.8-155.5,294.8c-18,49.6-36.9,100.7-29.9,152.4
			c7.4,48.8,42,90.7,86.2,111.9c135.9,62.4,277.6-43.8,358.1-149.4c115.8-147.2,221.4-302,323.6-458.8c21.4-31,43.4-61.5,67.6-90.5
			c2.9-3.5,8.1-3.9,11.6-1c2.7,2.3,3.6,5.9,2.5,9.1c-13.1,35.9-30.3,69.6-48.6,102.9c-96.3,162.3-205.2,317.1-320,466.9
			c-93,124.3-257.2,237.3-415.3,162.9c-78.6-37.4-126.6-123.2-110.9-209.8c13.2-78.4,46.7-147.7,81.5-217.2
			c35-67.8,73.6-132.7,116.1-196.2c6.1-9.1,18.5-11.6,27.7-5.5C1498.3,2243.6,1500.7,2256,1494.7,2265.1"/>
	</g>
	<g id="g292" transform="scale(2.16298)">
		<path id="path294" class="st0" d="M327.4,1192c0,0,20.9-494.8,589.2-378.4c0,0-29.3-203.4,86.5-395.2
			c83.6-138.6,187.1-195.7,276.2-183.7c56.8,7.7,102.8,51.3,115,107.3c6.7,30.9,7.5,69.9-9.1,113.1
			c-40.6,105.7-152.5,222.1-221.4,488.7c0,0,135.3,175.1,153.7,389.6c18.4,214.5-275.7,363.6-678.1,308.4
			C237,1586.7,178.8,1309.9,327.4,1192"/>
	</g>
	<g id="g296" transform="scale(1.35645)">
		<path id="path298" class="st1" d="M2084.4,2013.6c19.9,336.9-446.2,569.4-1081.9,482.3c-356.8-48.9-543.8-207.1-598.8-370.2
			c-11.1,199,169.6,431.2,615.9,492.3c641.6,87.9,1110.6-149.8,1081.3-491.8C2097.6,2087.8,2091.8,2050.1,2084.4,2013.6"/>
	</g>
	<g id="g300" transform="scale(2.08386)">
		<path id="path302" class="st1" d="M1447.3,355c-1.7-7.8-4.1-15.4-7-22.8c-1.3,19-5.3,39.3-13.6,60.7
			c-41.3,107.4-176.9,287.1-249.8,554c-2.9,10.7,0.7,22.1,9.3,29.2c5.8,4.9,12.8,10.7,19.5,16.2c71.9-244.8,192.4-416.4,232.2-519.9
			C1455.1,427.6,1454.3,387.1,1447.3,355"/>
	</g>
	<g id="g304" transform="scale(2.05464)">
		<path id="path306" class="st15" d="M1046.2,892c0,0-6.5-155.9,37.6-295.6c44.1-139.8,135.5-221.5,205.3-195.7
			c69.9,25.8-20.4,160.2-64.5,262.3c-30.5,70.7-86,273.1-86,273.1L1046.2,892"/>
	</g>
	<g id="g308" transform="scale(2.05464)">
		<path id="path310" class="st16" d="M1101.6,638.3c44.1-139.8,135.5-221.5,205.3-195.7c2.8,1,5.3,2.3,7.6,3.7
			c1.4-21.9-5.4-38.2-25.4-45.6c-69.9-25.8-161.3,55.9-205.3,195.7S1046.2,892,1046.2,892l17.5,8.4
			C1064.4,847,1070,738.5,1101.6,638.3"/>
	</g>
	<g id="g312" transform="scale(2.05203)">
		<path id="path314" class="st2" d="M1061.3,884.2l69.8,33.3c13.9-49.7,56.4-199.2,82.3-259.2c9.9-23,22.3-47.8,34.2-71.8
			c30.2-60.8,64.4-129.6,52.6-159.3c-2.4-6.1-6.9-10.2-14.2-12.9c-18.2-6.7-38.4-4.8-60,5.8c-51.3,25.1-100.1,94.5-127.4,181.2
			C1061.4,719,1060.7,850.3,1061.3,884.2z M1140.1,951.2c-2.1,0-4.1-0.5-6-1.4l-92.6-44.1c-4.7-2.2-7.7-6.8-8-12
			c-0.3-6.5-6-160.2,38.3-300.8c30-95.1,83-169,141.7-197.9c28.4-13.9,56.7-16.3,82-7c14.9,5.5,25.1,15.2,30.5,28.8
			c16.4,41.3-17.6,109.6-53.6,182c-11.8,23.7-23.9,48.2-33.5,70.4c-29.8,69.1-84.9,269.6-85.5,271.6c-1.1,4-3.9,7.3-7.7,9
			C1144,950.8,1142.1,951.2,1140.1,951.2"/>
	</g>
	<g id="g316" transform="scale(1.28245)">
		<path id="path318" class="st1" d="M1026.3,2238.5c0,0,33.1,31.1,68.8,27.8c35.8-3.3,19.9-62.3,19.9-62.3l58,2c0,0,7,52,74.1,54.3
			c31.4,1.1,55.4-6,72-13.8c15.1-7.1,32.2,6.2,28.1,22.4c-4.6,18.4-17.1,37.9-48,46.6c-66.5,18.8-126-23.6-126-23.6
			S1047.4,2359.7,1026.3,2238.5"/>
	</g>
	<g id="g320" transform="scale(1.31331)">
		<path id="path322" class="st2" d="M1201.7,2132.5c-2.1,24.8-53.1,43.6-75,43.7c-27.7,0.1-83.9-32.2-81.8-57
			c2.1-24.8,37.9-29.6,81.2-25.9C1169.4,2096.9,1203.8,2107.7,1201.7,2132.5"/>
	</g>
	<g id="g324" transform="scale(1.305)">
		<path id="path326" class="st17" d="M1120,2141.6c-6.9,0-14.1-1.6-19.7-4.5c-7.6-4-15.1-8.7-14.8-11.6c0.3-4.1,7.6-5.6,18.1-5.6
			c4.3,0,9.1,0.2,14.2,0.7c17.5,1.5,31.5,4.5,31,10.3c-0.2,2.9-8.4,6.3-16.6,8.9C1128.5,2141,1124.3,2141.6,1120,2141.6"/>
	</g>
	<g id="g328" transform="scale(1.29222)">
		<path id="path330" class="st2" d="M1150.8,2183.9c4.9,36.8,18.4,84.7,56.4,96.4c41.3,12.5,79.2-8.5,117.1-26.2
			c4-1.9,8.8-0.2,10.7,3.8c1.1,2.4,1,5.1-0.2,7.3c-6.4,11.9-14.9,21.1-24.9,29.4c-41.1,33.9-111.5,39.3-151.1-0.9
			c-28.3-29.6-36.6-70.5-34.4-110C1126,2167.2,1149.6,2167.6,1150.8,2183.9"/>
	</g>
	<g id="g332" transform="scale(1.276)">
		<path id="path334" class="st2" d="M1174.1,2314.5c-43.2,38.2-105,34.8-139.1-13.4c-8-10.5-14-21.9-18.9-34
			c-1.7-4.2-2.9-7.8-4.3-13c-2.7-9.9,3.2-20.2,13.1-22.9c9.9-2.7,20.2,3.2,22.9,13.1c0.6,2.8,1.8,6.3,3,9.8
			c3.3,9.4,7.7,18.6,12.8,27c24.3,40.7,64.2,36.8,104.7,23.2C1174.5,2302.3,1179,2310.5,1174.1,2314.5"/>
	</g>
	<g id="g336" transform="scale(1.31043)">
		<path id="path338" class="st2" d="M1388.3,2106.6c75.8,28.8,158.9,34.4,237.7,16.5c27.9-5,54.3-14.1,82.3-20.1
			c7.8-2.2,16,2.6,17.5,10.7c2,13.6-14.1,19.6-22.3,27.6c-15.1,12.4-33,21.4-50.4,30.3l-11.1,4.2c-22.2,8.8-45.9,15-69.7,17.2
			c-71.5,8-149.3-12-201.2-63.3C1360.1,2117.4,1373.6,2100,1388.3,2106.6"/>
	</g>
	<g id="g340" transform="scale(1.3469)">
		<path id="path342" class="st2" d="M655,1979.4c45.2,26.5,96.1,45.1,148.7,47.1c20.3,1.6,40.8-0.3,61.1-1.6
			c8.7-1.4,18.2-2.7,27-3.6c12.6-1.9,25.4-4.8,38.9-5.8c12.4-1.1,18.7,15.2,8.8,22.7c-19.2,15-41.1,26.1-64.1,34.3
			c-20.5,6-41.7,10-63.1,10.8c-5.4-0.2-16.2-0.5-21.6-0.8c-53.4-4-106.2-27.7-142-67.8c-4.8-5.3-8.9-10.7-13.3-17.4
			C627.7,1984.2,642.6,1971.1,655,1979.4"/>
	</g>
	<g id="g344" transform="scale(1.23384)">
		<path id="path346" class="st2" d="M1138.2,2411.7c0,0,15.2,85.2,76.8,94.1c61.6,9,89.4-89.5,89.4-89.5s-59.7-6.3-89.4-20.6
			C1215,2395.7,1182.4,2416,1138.2,2411.7"/>
	</g>
	<g id="g348" transform="scale(1.22388)">
		<path id="path350" class="st15" d="M1185,2506c0,0-1.1-34.3,31.2-48.2c48.7-21,77.1,10.1,77.1,10.1S1255.3,2542.7,1185,2506"/>
	</g>
	<g id="g352" transform="scale(1.24323)">
		<path id="path354" class="st2" d="M1155.1,2412.6c8,21.4,24.2,51,53.6,55.3c28.9,4.2,49.3-30.5,59.6-54.1
			c-18-2.9-42.6-7.7-61.6-15C1196.3,2403.6,1178,2410.6,1155.1,2412.6L1155.1,2412.6z M1214,2506.6c-3.5,0-7.2-0.3-10.9-0.8
			c-74-10.7-91.6-105-92.3-109c-1.1-5.9,0.7-12,4.8-16.4c4.1-4.4,9.9-6.6,15.9-6.1c36.4,3.6,64-12.9,64.3-13
			c5.6-3.5,12.5-3.8,18.4-1c21.7,10.5,66.8,17,82.4,18.6c5.6,0.6,10.7,3.6,13.9,8.3c3.2,4.7,4.1,10.5,2.6,16
			C1311.8,2407.7,1283,2506.6,1214,2506.6"/>
	</g>
	<g id="g356" transform="scale(2.17513)">
		<path id="path358" class="st2" d="M750.4,804.6c-105.2,0-192.5,26.7-260.6,79.9C348.4,995,338.8,1184,338.8,1185.9
			c-0.2,3.8-2,7.4-5,9.8c-58.1,46.1-82,119.2-62.4,190.7c32.6,119.1,169.5,206.3,366.2,233.3c249.6,34.2,474.9-11.4,588.2-119.1
			c52.1-49.5,76.7-109.4,71.2-173.4c-17.7-206.7-148.8-378.8-150.1-380.5c-2.5-3.2-3.3-7.4-2.3-11.4
			c46.3-179.1,113.3-293.1,162.3-376.4c24.3-41.4,45.4-77.2,58.4-111c13.3-34.5,16.1-69.8,8.5-104.9
			c-11.1-50.9-52.6-89.6-103.3-96.5c-91.2-12.3-186.6,52-261.6,176.4c-111.2,184.3-84.5,382.3-84.2,384.3c0.6,4.2-0.9,8.5-4,11.5
			c-3.1,2.9-7.5,4.2-11.7,3.3C852.3,810.4,799.4,804.6,750.4,804.6L750.4,804.6z M798.8,1657.2c-53.4,0-108.7-3.8-164.8-11.5
			c-207.5-28.4-352.6-122.8-388.1-252.4c-21.9-80,3.7-161.6,66.8-214.6c2.7-34.9,22.8-207.2,160.8-315
			c102.8-80.4,245.1-104.2,423-71c-4.4-54.7-7.8-221.9,89.6-383.5c80.7-133.8,185.6-202.6,287.7-188.9
			c61.7,8.3,112.1,55.3,125.5,117c8.7,40.2,5.5,80.6-9.6,120c-13.8,35.8-35.3,72.4-60.2,114.8c-50.2,85.5-112.6,191.6-157.9,363.5
			c22.9,31.2,134.8,192.5,151.6,389.1c6.2,72.2-21.2,139.6-79.3,194.8c-57.3,54.5-142.5,95.2-246.3,117.7
			C936.4,1650.6,869.2,1657.2,798.8,1657.2"/>
	</g>
	<g id="g360" transform="scale(2.08865)">
		<path id="path362" class="st0" d="M673.6,858l-78.1,26.8c0,0-19,147-161.8,157.6C291,1053,247.6,800.2,311,604.6
			c63.5-195.7,290.8-279.2,375.4-141.7c84.6,137.5,69.1,380.5,69.1,380.5L673.6,858"/>
	</g>
	<g id="g364" transform="scale(1.92855)">
		<path id="path366" class="st16" d="M645,958.3c0,0,20.6-161.5-18.3-384.8c0,0,88,135.6,94.4,355.3L645,958.3"/>
	</g>
	<g id="g368" transform="scale(1.68613)">
		<path id="path370" class="st1" d="M397.4,1072.2c0,0,33.7,60.9,135.9,55c102.1-5.9,162.8-88.4,162.8-88.4s7.8,208.2-161.9,208.3
			C404.2,1247.2,397.4,1072.2,397.4,1072.2"/>
	</g>
	<g id="g372" transform="scale(2.05363)">
		<path id="path374" class="st2" d="M760.1,846.1c0.5-108-18.1-366.2-127.2-416.7c-43.8-21-95.1-14.6-139.3,4.6
			c-60.5,26.3-110.2,76-141,134.1c-54.8,107.7-68.4,280-22.4,392.5c18.9,46.7,56.8,90.6,111.2,84.9c27.7-2.1,55.3-10.6,78.2-26.4
			c33.2-22.9,55.3-59.4,66.8-97.7c2.2-7.3,4.3-15.9,5.4-23.2c1.1-5.4,4-10.1,9.3-11.4l81.3-21.9c9.8-2.5,14.7,11.5,5.4,15.6
			l-77.6,32.7l9.3-11.4c-9.2,55-37.2,108.3-83.5,140.9c-27.1,19.1-59.5,29.4-92.2,32.1c-68.4,6.9-117.6-43.6-141.3-102.5
			c-49.6-120.4-35.7-303.3,23.4-418.3c34.3-64.1,88.8-118,156.1-147c68.1-30.5,156.6-28.6,209.3,30.8
			c54.7,64.9,77.1,168.7,85.7,251.4c5.1,52.7,5.8,105.2,0.9,158.1C776.4,858.5,759.9,857.3,760.1,846.1"/>
	</g>
	<g id="g376" transform="scale(1.93754)">
		<path id="path378" class="st2" d="M627.3,952c10.9-94.3,8.9-190.4,0.1-284.9c-2.8-31.8-7.3-63.3-11.9-94.9
			c-1.7-8.9,10.5-13.8,15.2-6c69.2,100.2,99.6,237.3,96.5,358c-0.6,11.7-17.7,12.4-19,0.6c-3-30.4-6.6-60.6-11.5-90.5
			c-9.8-59.8-24.7-118.6-45.1-175.6c-10.1-28.2-21.7-56.7-34.9-83.4l15.2-6c19.4,103.1,29.8,208,28.3,313
			c-0.4,24.7-1.3,48.4-3.6,73.4c-0.8,8.1-8,14.1-16.2,13.3C632,968.2,626,960.4,627.3,952"/>
	</g>
</g>
</svg>
